<svg width="49" height="28" viewBox="0 0 49 28" fill="none" xmlns="http://www.w3.org/2000/svg">
<path d="M8.85024 27.3452C7.30763 27.3452 5.92695 26.9489 4.7082 26.1562C3.48945 25.3636 2.52638 24.2131 1.81899 22.7045C1.11161 21.196 0.757912 19.3636 0.757912 17.2074C0.757912 15.0256 1.11587 13.1847 1.83178 11.6847C2.55621 10.1761 3.53206 9.03835 4.75933 8.27131C5.98661 7.49574 7.3545 7.10795 8.86303 7.10795C10.0136 7.10795 10.9596 7.30398 11.7011 7.69602C12.4426 8.07954 13.0306 8.54403 13.4653 9.08949C13.9 9.62642 14.2366 10.1335 14.4752 10.6108H14.667V0.818181H19.3076V27H14.7565V23.9062H14.4752C14.2366 24.3835 13.8914 24.8906 13.4397 25.4276C12.988 25.956 12.3914 26.4077 11.65 26.7827C10.9085 27.1577 9.97524 27.3452 8.85024 27.3452ZM10.1414 23.5483C11.1215 23.5483 11.9568 23.2841 12.6471 22.7557C13.3375 22.2187 13.8616 21.473 14.2196 20.5185C14.5775 19.5639 14.7565 18.4517 14.7565 17.1818C14.7565 15.9119 14.5775 14.8082 14.2196 13.8707C13.8701 12.9332 13.3502 12.2045 12.6599 11.6847C11.9781 11.1648 11.1386 10.9048 10.1414 10.9048C9.11019 10.9048 8.24939 11.1733 7.55905 11.7102C6.86871 12.2472 6.34882 12.9886 5.99939 13.9347C5.64996 14.8807 5.47524 15.9631 5.47524 17.1818C5.47524 18.4091 5.64996 19.5043 5.99939 20.4673C6.35734 21.4219 6.88149 22.1761 7.57183 22.7301C8.2707 23.2756 9.12723 23.5483 10.1414 23.5483ZM28.8097 27.3963C27.5653 27.3963 26.4446 27.1747 25.4474 26.7315C24.4588 26.2798 23.6747 25.6151 23.0952 24.7372C22.5241 23.8594 22.2386 22.777 22.2386 21.4901C22.2386 20.3821 22.4432 19.4659 22.8523 18.7415C23.2614 18.017 23.8196 17.4375 24.527 17.0028C25.2344 16.5682 26.0313 16.2401 26.9176 16.0185C27.8125 15.7884 28.7372 15.6222 29.6918 15.5199C30.8423 15.4006 31.7756 15.294 32.4915 15.2003C33.2074 15.098 33.7273 14.9446 34.0511 14.7401C34.3835 14.527 34.5497 14.1989 34.5497 13.7557V13.679C34.5497 12.7159 34.2642 11.9702 33.6932 11.4418C33.1222 10.9134 32.2997 10.6491 31.2259 10.6491C30.0923 10.6491 29.1932 10.8963 28.5284 11.3906C27.8722 11.8849 27.429 12.4687 27.1989 13.142L22.8778 12.5284C23.2188 11.3352 23.7813 10.3381 24.5653 9.53693C25.3494 8.72727 26.3082 8.12216 27.4418 7.72159C28.5753 7.3125 29.8281 7.10795 31.2003 7.10795C32.1463 7.10795 33.0881 7.21875 34.0256 7.44034C34.9631 7.66193 35.8196 8.02841 36.5952 8.53977C37.3707 9.04261 37.9929 9.72869 38.4616 10.598C38.9389 11.4673 39.1776 12.554 39.1776 13.858V27H34.7287V24.3026H34.5753C34.294 24.848 33.8977 25.3594 33.3864 25.8366C32.8835 26.3054 32.2486 26.6847 31.4815 26.9744C30.723 27.2557 29.8324 27.3963 28.8097 27.3963ZM30.0114 23.9957C30.9403 23.9957 31.7457 23.8125 32.4276 23.446C33.1094 23.071 33.6335 22.5767 34 21.9631C34.375 21.3494 34.5625 20.6804 34.5625 19.956V17.642C34.4176 17.7614 34.1705 17.8722 33.821 17.9744C33.4801 18.0767 33.0966 18.1662 32.6705 18.2429C32.2443 18.3196 31.8224 18.3878 31.4048 18.4474C30.9872 18.5071 30.625 18.5582 30.3182 18.6009C29.6278 18.6946 29.0099 18.848 28.4645 19.0611C27.919 19.2741 27.4886 19.5724 27.1733 19.956C26.858 20.331 26.7003 20.8168 26.7003 21.4134C26.7003 22.2656 27.0114 22.9091 27.6335 23.3438C28.2557 23.7784 29.0483 23.9957 30.0114 23.9957ZM45.6018 27.2812C44.8262 27.2812 44.1615 27.0085 43.6075 26.4631C43.0535 25.9176 42.7808 25.2528 42.7893 24.4688C42.7808 23.7017 43.0535 23.0455 43.6075 22.5C44.1615 21.9545 44.8262 21.6818 45.6018 21.6818C46.3518 21.6818 47.0038 21.9545 47.5578 22.5C48.1203 23.0455 48.4058 23.7017 48.4143 24.4688C48.4058 24.9886 48.2694 25.4616 48.0052 25.8878C47.7495 26.3139 47.4086 26.6548 46.9825 26.9105C46.5649 27.1577 46.1047 27.2812 45.6018 27.2812Z" fill="black"/>
</svg>
